<?xml version="1.0" encoding="UTF-8" standalone="no"?>
<svg
   version="1.1"
   id="Layer_1"
   x="0px"
   y="0px"
   width="762.99622"
   viewBox="0 0 762.99622 234.17404"
   enable-background="new 0 0 1024 672"
   xml:space="preserve"
   sodipodi:docname="YakShaver-logo.svg"
   height="234.17404"
   inkscape:version="1.4.3 (0d15f75, 2025-12-25)"
   xmlns:inkscape="http://www.inkscape.org/namespaces/inkscape"
   xmlns:sodipodi="http://sodipodi.sourceforge.net/DTD/sodipodi-0.dtd"
   xmlns="http://www.w3.org/2000/svg"
   xmlns:svg="http://www.w3.org/2000/svg"><defs
   id="defs11" /><sodipodi:namedview
   id="namedview11"
   pagecolor="#ffffff"
   bordercolor="#000000"
   borderopacity="0.25"
   inkscape:showpageshadow="2"
   inkscape:pageopacity="0.0"
   inkscape:pagecheckerboard="0"
   inkscape:deskcolor="#d1d1d1"
   showgrid="false"
   inkscape:zoom="1.09375"
   inkscape:cx="356.11429"
   inkscape:cy="221.71429"
   inkscape:window-width="1676"
   inkscape:window-height="954"
   inkscape:window-x="0"
   inkscape:window-y="34"
   inkscape:window-maximized="0"
   inkscape:current-layer="Layer_1" />
<path
   fill="#000000"
   opacity="1"
   stroke="none"
   d="m 35.989574,18.754435 c -3.31349,9.23743 -4.89774,18.25754 -3.76048,27.77662 2.1143,17.69694 14.93742,29.59002 32.88162,30.05121 11.48692,0.29525 22.98654,-0.1612 34.46586,0.86318 3.661346,0.32676 5.676346,1.77616 6.886796,5.25983 4.42515,12.73551 9.08496,25.389335 13.62074,38.086635 1.25292,3.50735 3.14455,6.54895 5.86502,9.13336 2.45117,-0.85095 3.25519,-3.01211 4.41048,-4.725 9.68697,-14.36249 19.44588,-28.680845 28.83165,-43.239105 2.51996,-3.90872 5.43951,-5.21356 9.84729,-5.17194 11.49502,0.10852 22.99332,-0.18869 34.49005,-0.16857 4.2041,0.007 8.33319,-0.54944 12.38391,-1.40061 15.42243,-3.24066 23.87162,-13.19533 25.0846,-28.78387 1.14633,-14.73201 -2.9097,-27.98554 -10.82236,-40.2374001 -1.15457,-1.78773 -2.37622,-3.53218 -3.69669,-5.48907005 0.81852,-0.36873 1.2985,-0.79496 1.60865,-0.69489 35.07962,11.32043015 55.81063,52.80077015 42.33554,84.00745015 -8.0279,18.591575 -23.08588,28.206255 -42.32581,32.141075 -2.59961,0.53171 -5.26733,0.76019 -7.91461,1.01297 -0.94086,0.0899 -1.91467,-0.16519 -2.88025,-0.26352 -0.29053,-2.68188 2.689,-2.31787 3.19809,-3.77734 -12.20267,2.01077 -24.4726,4.12701 -36.78006,5.99597 -3.17337,0.48187 -5.48392,1.62216 -7.50052,4.21561 -9.40475,12.09503 -18.72793,24.27252 -28.63949,35.94574 -4.40818,5.19168 -5.65528,11.14657 -6.89815,17.27572 -2.6445,13.04099 -5.54212,26.06479 -5.33884,39.49472 0.047,3.10675 -0.95767,4.89209 -4.4919,5.20755 -16.24275,1.4498 -32.466056,3.11694 -48.698326,4.68546 -1.29889,0.12548 -2.66541,0.36465 -4.04794,-0.98285 2.3838,-7.72858 4.96113,-15.58554 7.22302,-23.53229 3.59753,-12.63919 6.9035,-25.35205 8.97017,-38.36124 0.3819,-2.40393 0.33253,-4.54605 -0.53362,-6.8096 -4.64616,-12.14196 -10.10933,-23.92596 -15.425,-35.77829 -1.43063,-3.18988 -3.42906,-4.54397 -6.92929,-4.30023 -4.85365,0.33795 -9.53603,-1.21695 -14.38037,-1.80749 -0.45146,1.45889 1.67668,1.50064 1.37443,2.9443 -0.38946,1.07642 -1.49934,0.91293 -2.44204,0.83759 C 31.910184,116.2433 7.9106038,103.21525 1.6104038,75.820055 c -4.96355,-21.58306 1.88032,-40.41854 15.9401602,-56.88739 6.58061,-7.70816 14.71368,-13.4775901 23.95389,-17.6510301 0.86566,-0.39097005 1.8489,-0.52157005 3.95086,-1.09081005 -3.15895,6.75549005 -7.16015,12.05263015 -9.46574,18.56361015 m -14.46984,47.95943 c -3.43573,-16.72166 -2.54565,-32.93875 6.4542,-49.08113 -21.8226302,20.64565 -18.6172502,53.88361 -0.22354,68.159 -2.2634,-6.30136 -4.68083,-12.11209 -6.23066,-19.07787 M 255.27552,30.309115 c -3.96665,-7.05715 -6.03711,-9.58644 -10.79291,-12.9307 11.42532,21.61563 12.47302,43.23677 1.72635,66.23274 12.81494,-12.02566 18.72479,-34.56398 9.06656,-53.30204 z"
   id="path1" />
<path
   fill="#000000"
   opacity="1"
   stroke="none"
   d="m 302.49073,204.49986 c 1.4451,1.80078 3.3421,2.8049 3.8901,4.76669 -0.27023,1.3259 -1.26055,1.64832 -2.23394,1.81198 -6.22828,1.04746 -12.44541,2.19284 -18.70395,3.02094 -8.15253,1.07864 -14.19873,-2.2165 -18.34903,-9.29773 -2.56119,-4.36991 -5.35779,-8.60187 -8.55573,-13.70481 -2.23498,6.73246 -3.12997,12.6178 -4.11016,18.46061 -0.50495,3.01007 -1.67408,4.93438 -4.91105,5.24972 -6.95245,0.67731 -13.8945,1.46301 -20.84863,2.12192 -4.02939,0.3818 -3.67105,-1.98648 -3.05829,-4.81348 4.6146,-21.28943 9.16193,-42.5935 13.68524,-63.90256 1.58771,-7.47967 3.24436,-14.95391 4.48865,-22.4935 0.65143,-3.94723 2.1875,-6.24899 6.33017,-7.0404 7.18784,-1.37323 14.29202,-3.18115 21.44269,-4.75501 1.42822,-0.31433 2.93094,-0.77102 4.95233,0.67646 -4.37152,17.07596 -8.80786,34.40521 -13.24423,51.73446 0.20764,0.17887 0.41528,0.35773 0.62295,0.53659 4.04132,-4.57556 8.09174,-9.14315 12.11801,-13.7319 1.09757,-1.25082 2.36335,-2.43518 3.14042,-3.8725 3.94336,-7.29376 10.25363,-7.9433 17.39163,-6.41799 5.11569,1.09316 10.35992,1.77667 15.95889,4.4587 -6.66754,6.80121 -12.78451,13.09299 -18.95911,19.32773 -10.93209,11.03861 -9.52441,7.95508 -2.67453,20.61386 3.23798,5.98398 6.93238,11.77289 11.62757,17.25022 z"
   id="path2" />
<path
   fill="#000000"
   opacity="1"
   stroke="none"
   d="m 491.44666,114.12431 c -3.76233,11.92563 -7.41412,23.47287 -11.06592,35.02011 0.26917,0.23239 0.53827,0.46478 0.80744,0.69717 2.39343,-1.88046 4.75073,-3.80911 7.1875,-5.63168 5.53808,-4.14224 11.36517,-7.63904 18.6084,-7.60858 7.2022,0.0303 10.67358,4.20169 8.98181,11.4895 -2.63324,11.34436 -5.73279,22.57965 -8.47577,33.89966 -1.25232,5.16781 -2.20581,10.41314 -3.13825,15.65121 -0.49267,2.76783 -1.48303,4.44544 -4.69171,4.71326 -7.39227,0.6171 -14.75409,1.60025 -22.96594,2.52966 2.49475,-15.11871 8.35474,-28.5209 9.80389,-44.1423 -5.92981,3.25903 -10.50244,6.20132 -12.13269,12.05682 -2.54388,9.13712 -5.09887,18.28067 -7.23657,27.517 -0.96942,4.18863 -3.15967,5.75232 -7.20941,5.92014 -4.82141,0.19976 -9.65216,0.58947 -14.43231,1.23916 -4.12689,0.56092 -5.00647,-0.75958 -3.98248,-4.68255 5.00109,-19.15949 9.85955,-38.35654 14.69036,-57.55994 2.07032,-8.22958 4.01868,-16.49158 5.88208,-24.77045 0.6742,-2.99511 1.95984,-4.91345 5.09009,-6.02395 8.58502,-3.04575 17.03095,-6.48368 25.75916,-9.8541 1.23504,3.76944 -0.83429,6.34314 -1.47968,9.53986 z"
   id="path3" />
<path
   fill="#000000"
   opacity="1"
   stroke="none"
   d="m 145.81971,211.79631 c -2.25745,-9.23395 0.89258,-16.47431 7.01639,-22.54398 9.10549,-9.02506 20.81845,-12.78381 32.92559,-15.58716 1.94287,-0.44986 3.91681,-0.76392 5.87079,-1.16779 2.35706,-0.48718 3.263,-2.03323 3.1886,-4.34487 -0.0786,-2.43946 -1.45142,-3.63868 -3.71979,-3.88181 -4.37097,-0.46835 -8.64084,0.22061 -12.80465,1.48642 -5.83957,1.77536 -11.64133,3.67496 -17.51865,5.54028 -1.11331,-11.46768 3.32602,-18.99743 13.34763,-22.64749 11.82348,-4.30639 23.83291,-7.42819 36.60034,-5.00177 10.73724,2.04062 15.11688,8.03058 13.2142,18.87747 -1.80789,10.30649 -4.00711,20.54447 -6.04944,30.8096 -0.42035,2.11274 -0.91998,4.21219 -0.0266,6.38163 2.74658,0.52301 3.64642,-2.85044 6.4206,-2.78174 2.73385,1.94195 2.37033,4.53094 0.92483,7.2417 -4.58048,8.58999 -19.88751,15.78821 -29.64774,13.97842 -5.61126,-1.04049 -5.9588,-5.42419 -6.00732,-10.64908 -2.67969,1.79932 -4.78125,3.32032 -6.98682,4.67154 -7.59411,4.6525 -15.44159,8.53043 -24.72821,8.08475 -5.65704,-0.27142 -9.96756,-2.39133 -12.01977,-8.46612 m 34.91113,-21.76743 c -1.90402,1.92426 -3.41589,4.13565 -4.06702,6.75986 -0.84774,3.41653 0.96064,5.09481 4.362,4.25467 7.36698,-1.81968 11.91419,-8.76648 10.68454,-16.61905 -4.11367,0.45321 -7.52325,2.27169 -10.97952,5.60452 z"
   id="path4" />
<path
   fill="#000000"
   opacity="1"
   stroke="none"
   d="m 395.11283,202.82032 c 13.00565,-5.52469 25.14719,-11.67383 34.11526,-22.59536 4.92298,-5.9954 7.65119,-12.77805 7.62458,-20.63096 -0.0208,-6.16491 -2.74774,-10.39334 -8.35981,-12.9757 -9.36926,-4.31141 -19.54516,-5.30094 -29.46386,-7.33481 -3.59699,-0.73758 -7.19031,-1.43875 -10.56842,-2.88724 -5.48947,-2.35382 -6.29645,-6.92639 -1.7684,-10.83533 4.3854,-3.78582 9.75888,-5.62863 15.32089,-6.94476 12.09436,-2.86194 24.37994,-3.50241 36.72497,-2.80164 3.98944,0.22647 6.76929,-0.71337 8.36359,-4.54345 2.98096,-7.16114 9.38385,-11.05545 15.14197,-15.516265 4.66919,-3.61725 9.49347,-7.03442 14.24896,-10.54034 0.29822,0.31201 0.59644,0.62402 0.89465,0.93606 -5.80542,6.37674 -11.6109,12.75348 -17.73211,19.477135 3.97393,1.0156 7.07916,-1.56256 12.11767,-1.15136 -8.25555,6.55432 -15.42645,12.24746 -22.59735,17.94064 0.1073,0.24597 0.2146,0.49194 0.32196,0.73788 2.32416,-0.35916 4.64832,-0.71832 7.42816,-1.14791 0.34113,4.84179 -1.40039,9.0162 -2.41693,13.26089 -3.17566,13.2598 -6.48114,26.48898 -9.80737,39.7121 -4.72186,18.77118 -16.33276,31.63617 -33.92395,39.32339 -16.61554,7.26084 -34.20999,10.90079 -51.95969,13.88034 -12.13873,2.03763 -24.32498,3.7948 -36.4978,5.62504 -1.90946,0.2871 -3.88962,0.95114 -6.86176,-0.7985 26.9462,-10.20596 53.12623,-20.12173 79.65479,-30.18985 z"
   id="path5" />
<path
   fill="#000000"
   opacity="1"
   stroke="none"
   d="m 394.08777,167.7689 c -0.91632,0.66165 -1.59231,1.14532 -2.78601,1.99939 4.26825,0 8.01551,0 11.85022,0 -0.25165,2.63766 -2.33496,2.46356 -3.71594,2.9711 -10.77994,3.96185 -21.42691,8.42334 -32.45081,11.54398 -10.57193,2.99267 -17.10098,10.34301 -24.05148,18.94458 4.181,-0.68128 7.73859,-1.26099 11.29614,-1.84067 -12.57836,12.81497 -28.18743,20.72149 -42.90487,29.9526 -0.32346,-0.34823 -0.64691,-0.69647 -0.97034,-1.0447 8.46573,-8.69251 16.93149,-17.38498 25.87647,-26.56955 -4.57233,-1.33823 -8.55784,1.56796 -13.6969,-0.1684 6.24469,-3.66608 11.7977,-6.92612 17.35073,-10.18613 -7.92239,-0.91647 -14.98721,2.55576 -22.47305,3.33481 -0.24127,-0.40314 -0.48254,-0.8063 -0.72384,-1.20944 12.47802,-8.0712 24.95605,-16.14243 37.33963,-24.15253 -0.0169,-1.5187 -1.14237,-1.79605 -1.95325,-2.24701 -16.5047,-9.17889 -18.84955,-25.07064 -12.1452,-40.96411 7.48214,-17.73721 22.18518,-27.89532 39.17788,-35.069665 25.76273,-10.87704 52.80985,-14.54562 80.61197,-13.41852 1.46985,0.0596 3.03553,-0.0666 4.51288,1.78082 -1.47827,3.99466 -3.2326,8.1114 -6.24414,11.74772 -1.87122,-1.41745 -0.14948,-3.05362 -0.8288,-4.39875 -1.61346,-1.40628 -3.6499,-1.31778 -5.61663,-1.46991 -7.52033,-0.58154 -15.01886,0.29065 -22.42737,1.11509 -18.82032,2.09433 -36.98233,6.77609 -53.67643,16.108025 -8.27273,4.62439 -15.2005,10.76831 -20.39923,18.74527 -3.06524,4.70334 -4.73608,9.85419 -4.83871,15.52048 -0.16171,8.92703 2.40906,13.17575 10.58292,16.72604 8.46185,3.67538 17.55151,5.08929 26.46374,7.14087 3.01627,0.69436 6.23746,0.79135 8.87912,2.55215 0.0307,1.44065 -1.047,1.77591 -2.0387,2.55646 z"
   id="path6" />
<path
   fill="#000000"
   opacity="1"
   stroke="none"
   d="m 527.14637,201.29136 c -6.24243,1.29627 -12.47034,2.45249 -16.63886,-2.85168 -4.58044,-5.82825 -2.74664,-12.41968 0.38684,-18.37781 5.20496,-9.89704 14.67023,-14.12277 24.58924,-17.47391 3.77063,-1.27389 7.68976,-2.15851 11.59271,-2.97409 2.87537,-0.6008 4.75909,-2.13321 4.44611,-5.01828 -0.35614,-3.28317 -3.21412,-3.50305 -5.77448,-3.29074 -6.36365,0.52753 -12.32269,2.67529 -18.27356,4.83887 -1.82227,0.6625 -3.53809,1.905 -5.65759,1.45099 -0.70935,-8.58625 3.28515,-16.12284 10.66162,-19.74518 9.59912,-4.7139 19.76282,-6.92826 30.46893,-6.16584 10.73487,0.76453 15.93201,7.38932 13.84766,17.94874 -1.6734,8.47772 -3.77258,16.87197 -5.72034,25.29455 -0.52301,2.26178 -1.22687,4.49057 -0.26337,6.78168 2.1637,0.77252 3.10096,-2.01422 5.11713,-1.50891 2.91425,5.14392 -1.14209,11.29736 -10.87695,16.33194 -10.21814,5.28451 -16.97034,4.285 -20.62189,-3.3689 -5.39923,3.16251 -10.61438,6.74942 -17.2832,8.12857 m 10.20575,-22.0188 c -0.50702,1.48496 -0.89099,3.03931 0.85248,3.92349 1.3656,0.69251 2.58911,-0.22424 3.69372,-0.92376 4.11054,-2.60294 5.89917,-6.28119 5.23059,-11.49402 -4.42114,1.53024 -7.76019,3.74124 -9.77679,8.49429 z"
   id="path7" />
<path
   fill="#000000"
   opacity="1"
   stroke="none"
   d="m 688.85639,153.8231 c -7.67285,4.23584 -15.57532,6.79156 -23.73981,8.51053 -4.31024,0.90747 -6.58447,3.04068 -5.66705,7.60275 0.93066,4.62817 4.53705,4.29682 7.87341,3.80106 6.1872,-0.91928 11.61341,-3.87818 17.04822,-6.79026 1.97461,-1.05801 3.66345,-2.97744 6.4856,-2.5137 1.45452,5.60678 0.63751,10.7757 -4.03571,14.36893 -12.5014,9.61239 -26.88818,12.82162 -42.30829,10.67703 -6.9093,-0.96094 -10.73803,-5.78726 -11.33923,-13.91104 -1.89746,-25.63986 19.34912,-59.95267 56.13531,-55.01273 10.50043,1.4101 14.80622,8.61087 11.67743,18.74771 -1.96582,6.36884 -6.38965,10.77628 -12.12988,14.51972 m -18.12531,-17.90732 c -3.71484,4.25931 -6.56585,8.91049 -7.39001,15.14862 7.15857,-1.09595 11.08344,-4.96448 13.30652,-10.80325 0.63067,-1.6564 1.67108,-3.52805 0.0331,-5.14362 -1.81549,-1.79077 -3.65967,-0.85061 -5.94965,0.79825 z"
   id="path8" />
<path
   fill="#000000"
   opacity="1"
   stroke="none"
   d="m 627.59681,163.32371 c -4.52637,8.76346 -8.96112,17.15668 -13.19519,25.64999 -1.40869,2.82587 -3.19147,4.22507 -6.4917,4.40717 -7.47205,0.41238 -14.92835,1.17966 -22.37458,1.9592 -3.23522,0.33868 -4.59698,-0.78962 -4.5418,-4.09195 0.30889,-18.47977 0.56268,-36.9607 0.74957,-55.44205 0.0275,-2.71835 1.24194,-3.87537 3.79663,-4.22812 5.93353,-0.81933 11.85138,-1.75226 17.77527,-2.64151 3.43036,-0.51495 3.83618,1.21964 3.49035,4.14676 -1.49517,12.65482 -2.81622,25.3302 -3.52337,38.22189 5.01593,-10.82968 10.63983,-21.42941 14.85181,-32.56326 3.25585,-8.60654 8.47082,-12.76312 17.48992,-13.29159 4.41724,-0.25885 8.80866,-1.04572 13.92084,-0.99827 -8.5169,12.55436 -14.75,25.76667 -21.94775,38.87174 z"
   id="path9" />
<path
   fill="#000000"
   opacity="1"
   stroke="none"
   d="m 744.04255,115.50566 c 1.04803,1.84237 -0.25074,3.4252 0.13824,5.30194 4.48444,-3.46378 9.15985,-6.23966 14.53577,-7.67044 3.27765,-0.87232 5.09991,-0.097 3.91827,3.61056 -2.42322,7.60339 -4.9801,15.16461 -7.52814,22.72763 -0.70159,2.08255 -2.05163,2.39462 -4.29028,2.05344 -12.91894,-1.96915 -23.15271,5.31518 -25.95581,18.09308 -1.49615,6.82028 -3.22027,13.59036 -4.73944,20.40588 -0.61938,2.77902 -1.90308,4.22794 -5.00262,4.4162 -6.91858,0.4202 -13.81421,1.21841 -20.51569,1.84363 -1.55743,-2.73645 -0.48114,-4.75446 0.0446,-6.78949 4.69763,-18.18158 10.10724,-36.18927 13.39959,-54.7136 0.52131,-2.93322 1.8794,-4.73007 5.05616,-5.2174 4.26635,-0.65448 8.45562,-1.80097 12.71576,-2.50928 5.68536,-0.94525 6.46417,-0.0892 5.6029,5.53476 -0.19019,1.24191 -0.32873,2.49176 -0.53345,4.0636 4.31574,-4.20834 5.1991,-11.68329 13.15412,-11.15051 z"
   id="path10" />
<path
   fill="#000000"
   opacity="1"
   stroke="none"
   d="m 420.14857,227.14735 c -3.36658,0.19766 -6.28089,0.37292 -9.15406,0.54575 -0.21576,-1.47327 0.5047,-1.82435 1.31855,-2.12977 17.02484,-6.38903 34.23217,-11.07815 52.70007,-12.14779 34.5448,-2.0008 68.99756,-5.57392 103.49469,-8.41916 18.74341,-1.5459 37.5014,-2.91275 56.2489,-4.40998 22.56158,-1.80178 45.11523,-3.70437 67.67944,-5.47265 17.75061,-1.39105 35.5119,-2.64786 53.26978,-3.94574 0.65448,-0.0478 1.33673,0.0793 1.63098,1.78906 -108.90009,11.82495 -217.78863,23.27094 -327.18835,34.19028 z"
   id="path11" />
</svg>
